{
  "accessors": [
    {
      "bufferView": 2,
      "componentType": 5126,
      "count": 65532,
      "max": [
        10.793123245239258,
        6.359230995178223,
        62.7733039855957
      ],
      "min": [
        -10.766783714294434,
        -2.715630054473877,
        -3.955263376235962
      ],
      "type": "VEC3"
    },
    {
      "bufferView": 2,
      "byteOffset": 786384,
      "componentType": 5126,
      "count": 65532,
      "max": [
        0.9999771118164063,
        0.9999923706054688,
        0.9999840259552002
      ],
      "min": [
        -0.9999771118164063,
        -0.9999980330467224,
        -0.9999918341636658
      ],
      "type": "VEC3"
    },
    {
      "bufferView": 0,
      "componentType": 5125,
      "count": 391350,
      "type": "SCALAR"
    },
    {
      "bufferView": 2,
      "byteOffset": 1572768,
      "componentType": 5126,
      "count": 28543,
      "max": [
        11.28972053527832,
        5.7392258644104,
        57.27720642089844
      ],
      "min": [
        -11.28972053527832,
        -1.9367347955703735,
        -3.955263376235962
      ],
      "type": "VEC3"
    },
    {
      "bufferView": 2,
      "byteOffset": 1915284,
      "componentType": 5126,
      "count": 28543,
      "max": [
        0.9999716877937317,
        0.9999926686286926,
        1.0
      ],
      "min": [
        -0.9999716877937317,
        -0.9999995231628418,
        -0.9999955892562866
      ],
      "type": "VEC3"
    },
    {
      "bufferView": 0,
      "byteOffset": 1565400,
      "componentType": 5125,
      "count": 169518,
      "type": "SCALAR"
    },
    {
      "bufferView": 2,
      "byteOffset": 2257800,
      "componentType": 5126,
      "count": 20642,
      "max": [
        0.12583908438682556,
        6.783812522888184,
        58.16276931762695
      ],
      "min": [
        -11.219562530517578,
        -2.269918203353882,
        -3.3541362285614014
      ],
      "type": "VEC3"
    },
    {
      "bufferView": 2,
      "byteOffset": 2505504,
      "componentType": 5126,
      "count": 20642,
      "max": [
        0.9999793767929077,
        0.9999335408210754,
        0.9993926286697388
      ],
      "min": [
        -0.9999391436576843,
        -0.9999907612800598,
        -0.9999778270721436
      ],
      "type": "VEC3"
    },
    {
      "bufferView": 0,
      "byteOffset": 2243472,
      "componentType": 5125,
      "count": 122115,
      "type": "SCALAR"
    },
    {
      "bufferView": 2,
      "byteOffset": 2753208,
      "componentType": 5126,
      "count": 41,
      "max": [
        30.0,
        30.0,
        -0.0
      ],
      "min": [
        -30.0,
        -30.0,
        -0.0
      ],
      "type": "VEC3"
    },
    {
      "bufferView": 2,
      "byteOffset": 2753700,
      "componentType": 5126,
      "count": 41,
      "max": [
        0.0,
        0.0,
        1.0
      ],
      "min": [
        0.0,
        0.0,
        1.0
      ],
      "type": "VEC3"
    },
    {
      "bufferView": 1,
      "componentType": 5126,
      "count": 41,
      "max": [
        0.5000001192092896,
        1.0
      ],
      "min": [
        0.0,
        0.4999997317790985
      ],
      "type": "VEC2"
    },
    {
      "bufferView": 0,
      "byteOffset": 2731932,
      "componentType": 5125,
      "count": 108,
      "type": "SCALAR"
    }
  ],
  "asset": {
    "extras": {
      "author": "VeryCrunchyTaco (https://sketchfab.com/VeryCrunchyTaco)",
      "license": "CC-BY-4.0 (http://creativecommons.org/licenses/by/4.0/)",
      "source": "https://sketchfab.com/3d-models/ecorche-wip-a16f85bf44c843778d98a8f387f23e16",
      "title": "Ecorche - WIP"
    },
    "generator": "Sketchfab-12.65.0",
    "version": "2.0"
  },
  "bufferViews": [
    {
      "buffer": 0,
      "byteLength": 2732364,
      "name": "floatBufferViews",
      "target": 34963
    },
    {
      "buffer": 0,
      "byteLength": 328,
      "byteOffset": 2732364,
      "byteStride": 8,
      "name": "floatBufferViews",
      "target": 34962
    },
    {
      "buffer": 0,
      "byteLength": 2754192,
      "byteOffset": 2732692,
      "byteStride": 12,
      "name": "floatBufferViews",
      "target": 34962
    }
  ],
  "buffers": [
    {
      "byteLength": 5486884,
      "uri": "scene.bin"
    }
  ],
  "materials": [
    {
      "doubleSided": true,
      "name": "Bones",
      "pbrMetallicRoughness": {
        "baseColorFactor": [
          0.48540884404178286,
          0.44207002924949845,
          0.3907978254645621,
          1.0
        ],
        "metallicFactor": 0.0,
        "roughnessFactor": 0.6
      }
    },
    {
      "doubleSided": true,
      "name": "Muscles",
      "pbrMetallicRoughness": {
        "baseColorFactor": [
          0.512241594656483,
          0.040963612482849916,
          0.040963612482849916,
          1.0
        ],
        "metallicFactor": 0.0,
        "roughnessFactor": 0.6
      }
    },
    {
      "doubleSided": true,
      "name": "Base",
      "pbrMetallicRoughness": {
        "baseColorFactor": [
          0.04326586174371897,
          0.04326586174371897,
          0.04326586174371897,
          1.0
        ],
        "metallicFactor": 0.0,
        "roughnessFactor": 0.6
      }
    }
  ],
  "meshes": [
    {
      "name": "Rehor-Ecorche-Skeleton_Bones_0",
      "primitives": [
        {
          "attributes": {
            "NORMAL": 1,
            "POSITION": 0
          },
          "indices": 2,
          "material": 0,
          "mode": 4
        }
      ]
    },
    {
      "name": "Rehor-Ecorche-Skeleton_Bones_0",
      "primitives": [
        {
          "attributes": {
            "NORMAL": 4,
            "POSITION": 3
          },
          "indices": 5,
          "material": 0,
          "mode": 4
        }
      ]
    },
    {
      "name": "Rehor-Ecorche-Muscles_Muscles_0",
      "primitives": [
        {
          "attributes": {
            "NORMAL": 7,
            "POSITION": 6
          },
          "indices": 8,
          "material": 1,
          "mode": 4
        }
      ]
    },
    {
      "name": "Rehor-Ecorche-Base_Base_0",
      "primitives": [
        {
          "attributes": {
            "NORMAL": 10,
            "POSITION": 9,
            "TEXCOORD_0": 11
          },
          "indices": 12,
          "material": 2,
          "mode": 4
        }
      ]
    }
  ],
  "nodes": [
    {
      "children": [
        1
      ],
      "matrix": [
        1.0,
        0.0,
        0.0,
        0.0,
        0.0,
        2.220446049250313e-16,
        -1.0,
        0.0,
        0.0,
        1.0,
        2.220446049250313e-16,
        0.0,
        0.0,
        0.0,
        0.0,
        1.0
      ],
      "name": "Sketchfab_model"
    },
    {
      "children": [
        2
      ],
      "matrix": [
        1.0,
        0.0,
        0.0,
        0.0,
        0.0,
        0.0,
        1.0,
        0.0,
        0.0,
        -1.0,
        0.0,
        0.0,
        0.0,
        0.0,
        0.0,
        1.0
      ],
      "name": "0d37f4e20a794ea8ae9f4c6ffc46778b.fbx"
    },
    {
      "children": [
        3,
        6,
        8
      ],
      "name": "RootNode"
    },
    {
      "children": [
        4,
        5
      ],
      "matrix": [
        1.0,
        0.0,
        0.0,
        0.0,
        0.0,
        2.220446049250313e-16,
        -1.0,
        0.0,
        0.0,
        1.0,
        2.220446049250313e-16,
        0.0,
        0.07613658905029297,
        0.0,
        0.0,
        1.0
      ],
      "name": "Rehor-Ecorche-Skeleton"
    },
    {
      "mesh": 0,
      "name": "Rehor-Ecorche-Skeleton_Bones_0"
    },
    {
      "mesh": 1,
      "name": "Rehor-Ecorche-Skeleton_Bones_0"
    },
    {
      "children": [
        7
      ],
      "matrix": [
        1.0,
        0.0,
        0.0,
        0.0,
        0.0,
        2.220446049250313e-16,
        -1.0,
        0.0,
        0.0,
        1.0,
        2.220446049250313e-16,
        0.0,
        0.0,
        0.0,
        0.0,
        1.0
      ],
      "name": "Rehor-Ecorche-Muscles"
    },
    {
      "mesh": 2,
      "name": "Rehor-Ecorche-Muscles_Muscles_0"
    },
    {
      "children": [
        9
      ],
      "matrix": [
        1.0,
        0.0,
        0.0,
        0.0,
        0.0,
        2.220446049250313e-16,
        -1.0,
        0.0,
        0.0,
        1.0,
        2.220446049250313e-16,
        0.0,
        -2.5702356651891023e-05,
        -3.9368228912353516,
        -1.9221820831298828,
        1.0
      ],
      "name": "Rehor-Ecorche-Base"
    },
    {
      "mesh": 3,
      "name": "Rehor-Ecorche-Base_Base_0"
    }
  ],
  "scene": 0,
  "scenes": [
    {
      "name": "Sketchfab_Scene",
      "nodes": [
        0
      ]
    }
  ]
}
